<?xml version="1.0" encoding="UTF-8"?>
<!-- Generator: Adobe Illustrator 22.0.0, SVG Export Plug-In . SVG Version: 6.00 Build 0)  -->
<svg version="1.1" id="Layer_1" xmlns="http://www.w3.org/2000/svg" xmlns:xlink="http://www.w3.org/1999/xlink" x="0px" y="0px" viewBox="0 0 302.9 96.4" style="enable-background:new 0 0 302.9 96.4;" xml:space="preserve">
<style type="text/css">
	.st0{fill:#FFFFFF;}
</style>
<g>
	<path class="st0" d="M241.5,10.5c0,0-0.1,0-0.1,0c-0.4-0.1-0.9-0.2-1.3-0.3c-0.1,0-0.2,0-0.3-0.1c-0.5-0.1-1-0.2-1.5-0.2   c-0.1,0-0.2,0-0.3,0c-0.5,0-1.1-0.1-1.6-0.1c-9.9,0-14.3,6.9-15.7,9.7l-13.1,29.8l-14.1,32.9c1.8,0.6,3.8,1,6.2,1   c8.8,0,13.3-5.5,15.2-8.7c0.3-0.5,0.7-1.1,1-1.7l0.4-1l25.8-61.2C241.9,10.7,241.7,10.6,241.5,10.5"/>
	<path class="st0" d="M268,10.5c0,0-0.1,0-0.1,0c-0.4-0.1-0.9-0.2-1.3-0.3c-0.1,0-0.2,0-0.3-0.1c-0.5-0.1-1-0.2-1.5-0.2   c-0.1,0-0.2,0-0.3,0c-0.5,0-1.1-0.1-1.6-0.1c-9.9,0-14.3,6.9-15.7,9.7l-7.8,17.7l-19.4,45c1.8,0.6,3.8,1,6.1,1   c8.8,0,13.3-5.5,15.2-8.7c0.3-0.5,0.7-1.1,1-1.7l26.6-62.1C268.6,10.7,268.3,10.6,268,10.5"/>
	<path class="st0" d="M294.9,10.5c0,0-0.1,0-0.1,0c-0.4-0.1-0.9-0.2-1.3-0.3c-0.1,0-0.2,0-0.3-0.1c-0.5-0.1-1-0.2-1.5-0.2   c-0.1,0-0.2,0-0.3,0c-0.5,0-1.1-0.1-1.6-0.1c-9.9,0-14.3,6.9-15.7,9.7l-7.8,17.7l-19.4,45c1.8,0.6,3.8,1,6.1,1   c8.8,0,13.3-5.5,15.2-8.7c0.3-0.5,0.7-1.1,1-1.7l26.6-62.1C295.5,10.7,295.2,10.6,294.9,10.5"/>
	<polygon class="st0" points="32.9,53.7 42.5,53.7 39.7,60.1 30.1,60.1 24.4,73.1 36.4,73.1 33.6,79.5 14.6,79.5 34.2,35 53.2,35    50.4,41.3 38.3,41.3  "/>
	<path class="st0" d="M65.6,62.9L63,68.8C59.9,75.9,54.5,80,47.7,80c-6.9,0-8.6-4.1-5.5-11.2l10.2-23.1c3.1-7.1,8.5-11.2,15.4-11.2   c6.9,0,8.6,4.1,5.5,11.2L71.3,50h-6.6l2.1-4.8c1.4-3.2,0.5-4.4-1.7-4.4c-2.2,0-4.2,1.2-5.6,4.4L49,69.3c-1.4,3.2-0.5,4.3,1.7,4.3   c2.2,0,4.1-1.1,5.5-4.3l2.8-6.4H65.6z"/>
	<path class="st0" d="M88.8,35L73.7,69.3c-1.4,3.2-0.5,4.3,1.7,4.3c2.2,0,4.1-1.1,5.5-4.3L96,35h6.6L87.7,68.9   c-3.1,7.1-8.5,11.2-15.4,11.2c-6.9,0-8.6-4.1-5.5-11.2L81.8,35H88.8z"/>
	<path class="st0" d="M110.8,79.5h-7.1l2.3-8.1h-8.6l-4.8,8.1h-6.4L113,35h10.2L110.8,79.5z M101.1,65.4h6.7l6.5-22.5L101.1,65.4z"/>
	<path class="st0" d="M133.7,35h11.1c7,0,8.7,3.9,5.6,11l-9.9,22.5c-3.1,7.1-8.3,11-15.3,11h-11.1L133.7,35z M137.9,41.3l-14,31.8   h3.9c2.2,0,4.1-1.1,5.5-4.3l10.2-23.1c1.4-3.2,0.6-4.3-1.7-4.3H137.9z"/>
	<path class="st0" d="M154.3,45.7c3.1-7.1,8.7-11.2,15.5-11.2c6.9,0,8.8,4.1,5.7,11.2l-10.2,23.1c-3.1,7.1-8.7,11.2-15.5,11.2   c-6.9,0-8.8-4.1-5.7-11.2L154.3,45.7z M150.9,69.3c-1.4,3.2-0.5,4.4,1.7,4.4c2.2,0,4.2-1.2,5.6-4.4l10.6-24   c1.4-3.2,0.5-4.4-1.7-4.4c-2.2,0-4.2,1.2-5.6,4.4L150.9,69.3z"/>
	<path class="st0" d="M179.2,79.5c0.1-1.1,0.2-1.8,1.8-5.5l3.1-7c1.8-4.1,1.1-5.7-2.1-5.7h-2.4l-8,18.1h-7L184.2,35h10.6   c7.3,0,8.9,3.4,5.9,10.2l-1.5,3.5c-2,4.6-4.8,7.6-8.6,9c2.9,1.5,2.5,4.8,0.5,9.5l-3,6.9c-1,2.2-1.6,3.8-1.6,5.4H179.2z M188.4,41.3   l-6,13.7h2.7c2.6,0,4.7-1.1,6.3-4.7l1.9-4.4c1.4-3.2,0.9-4.6-1.5-4.6H188.4z"/>
	<polygon class="st0" points="142.6,20.9 146.5,20.9 145.4,23.4 141.5,23.4 139.2,28.7 144.1,28.7 142.9,31.2 135.3,31.2    143.2,13.4 150.8,13.4 149.7,15.9 144.8,15.9  "/>
	<polygon class="st0" points="152.5,13.4 155.3,13.4 148.6,28.7 153.2,28.7 152.1,31.2 144.7,31.2  "/>
	<polygon class="st0" points="165.9,18.3 160.2,31.2 157.7,31.2 165.5,13.4 169,13.4 167.2,24.1 171.9,13.4 174.4,13.4 166.6,31.2    163.7,31.2  "/>
	<path class="st0" d="M179.1,13.4l-6,13.7c-0.6,1.3-0.2,1.7,0.7,1.7c0.9,0,1.7-0.5,2.2-1.7l6-13.7h2.6l-6,13.6   c-1.3,2.8-3.4,4.5-6.1,4.5c-2.7,0-3.5-1.6-2.2-4.5l6-13.6H179.1z"/>
	<polygon class="st0" points="186,20.9 189.9,20.9 188.7,23.4 184.9,23.4 182.6,28.7 187.4,28.7 186.3,31.2 178.7,31.2 186.5,13.4    194.2,13.4 193,15.9 188.2,15.9  "/>
	<polygon class="st0" points="193.7,27.9 202.3,13.4 204.8,13.4 194.2,31.2 190.1,31.2 195.2,13.4 198,13.4  "/>
	<path class="st0" d="M204,17.7c1.3-2.8,3.5-4.5,6.2-4.5c2.7,0,3.5,1.6,2.3,4.5l-4.1,9.3c-1.3,2.8-3.5,4.5-6.2,4.5   c-2.7,0-3.5-1.6-2.3-4.5L204,17.7z M202.6,27.1c-0.6,1.3-0.2,1.8,0.7,1.8c0.9,0,1.7-0.5,2.2-1.8l4.2-9.6c0.6-1.3,0.2-1.8-0.7-1.8   c-0.9,0-1.7,0.5-2.2,1.8L202.6,27.1z"/>
</g>
</svg>
